# xmcd CD database file
# Copyright (C) 1997 Ti Kan
#
# Track frame offsets:
#  150
#  12017
#  24167
#  36120
#  53522
#  67602
#  80250
#  101370
#  111392
#  134262
#  148110
#  157362
#  171662
#
# Disc length: 2535 seconds
#
# Revision: 1
# Processed by: cddbd v1.4b41PL1 Copyright (c) Steve Scherf et al.
# Submitted via: CDWizzard Release:4.30
#
DISCID=a309e50d
DTITLE=The Birthday Party - Prayers On Fire
DYEAR=1900
DGENRE=
TTITLE0=Zoo-Music Girl
TTITLE1=Cry
TTITLE2=Capers
TTITLE3=Nick The Stripper
TTITLE4=Ho-Ho
TTITLE5=Figure Of Fun
TTITLE6=King Ink
TTITLE7=A Dead Song
TTITLE8=Yard
TTITLE9=Dull Day
TTITLE10=Just You And Me
TTITLE11=Bluendertown
TTITLE12=Kathys Kisses
EXTD=
EXTT0=
EXTT1=
EXTT2=
EXTT3=
EXTT4=
EXTT5=
EXTT6=
EXTT7=
EXTT8=
EXTT9=
EXTT10=
EXTT11=
EXTT12=
PLAYORDER=
